<?xml version="1.0" encoding="UTF-8"?>
<svg width="96px" height="96px" viewBox="0 0 96 96" version="1.1" xmlns="http://www.w3.org/2000/svg" xmlns:xlink="http://www.w3.org/1999/xlink">
    <!-- Generator: Sketch 41.2 (35397) - http://www.bohemiancoding.com/sketch -->
    <title>chat</title>
    <desc>Created with Sketch.</desc>
    <defs></defs>
    <g id="Page-1" stroke="none" stroke-width="1" fill="none" fill-rule="evenodd">
        <g id="chat" fill="#000000">
            <g id="Page-1">
                <g>
                    <g id="chat">
                        <g id="Capa_1">
                            <path d="M86.2801665,0 L9.58668517,0 C4.3907018,0 0,4.71085714 0,10.2857143 L0,66.8571429 C0,72.432 4.3907018,77.1428571 9.58668517,77.1428571 L55.2161109,77.1428571 L70.7177808,95.4394286 C71.0261526,95.8028571 71.4591512,96 71.9001387,96 C72.0934702,96 72.2883995,95.9622857 72.4753398,95.8851429 C73.0920832,95.6297143 73.4979196,94.9937143 73.4979196,94.2857143 L73.4979196,77.1428571 L86.2801665,77.1428571 C91.4761498,77.1428571 95.8668517,72.432 95.8668517,66.8571429 L95.8668517,10.2857143 C95.8668517,4.71085714 91.4761498,0 86.2801665,0 Z M19.1733703,22.2857143 L43.1400832,22.2857143 C44.023656,22.2857143 44.7378641,23.0537143 44.7378641,24 C44.7378641,24.9462857 44.023656,25.7142857 43.1400832,25.7142857 L19.1733703,25.7142857 C18.2897975,25.7142857 17.5755895,24.9462857 17.5755895,24 C17.5755895,23.0537143 18.2897975,22.2857143 19.1733703,22.2857143 Z M73.4979196,53.1428571 L19.1733703,53.1428571 C18.2897975,53.1428571 17.5755895,52.3748571 17.5755895,51.4285714 C17.5755895,50.4822857 18.2897975,49.7142857 19.1733703,49.7142857 L73.4979196,49.7142857 C74.3814924,49.7142857 75.0957004,50.4822857 75.0957004,51.4285714 C75.0957004,52.3748571 74.3814924,53.1428571 73.4979196,53.1428571 Z M73.4979196,39.4285714 L19.1733703,39.4285714 C18.2897975,39.4285714 17.5755895,38.6605714 17.5755895,37.7142857 C17.5755895,36.768 18.2897975,36 19.1733703,36 L73.4979196,36 C74.3814924,36 75.0957004,36.768 75.0957004,37.7142857 C75.0957004,38.6605714 74.3814924,39.4285714 73.4979196,39.4285714 Z" id="Shape"></path>
                        </g>
                    </g>
                </g>
            </g>
        </g>
    </g>
</svg>