<?xml version="1.0" encoding="UTF-8"?>
<svg width="96px" height="96px" viewBox="0 0 96 96" version="1.1" xmlns="http://www.w3.org/2000/svg" xmlns:xlink="http://www.w3.org/1999/xlink">
    <!-- Generator: Sketch 41.2 (35397) - http://www.bohemiancoding.com/sketch -->
    <title>facebook</title>
    <desc>Created with Sketch.</desc>
    <defs></defs>
    <g id="Page-1" stroke="none" stroke-width="1" fill="none" fill-rule="evenodd">
        <g id="facebook" fill="#000000">
            <g id="facebook-logo" transform="translate(28.134975, 11.250000)">
                <g id="Capa_1">
                    <path d="M37.9540361,0.0151546392 L28.5089072,0 C17.8976289,0 11.0401546,7.03554124 11.0401546,17.9249072 L11.0401546,26.1894897 L1.5435,26.1894897 C0.722876289,26.1894897 0.0583453608,26.8547784 0.0583453608,27.6754021 L0.0583453608,39.6498402 C0.0583453608,40.4704639 0.723634021,41.1349948 1.5435,41.1349948 L11.0401546,41.1349948 L11.0401546,71.3503144 C11.0401546,72.1709381 11.7046856,72.8354691 12.5253093,72.8354691 L24.9157423,72.8354691 C25.736366,72.8354691 26.4008969,72.1701804 26.4008969,71.3503144 L26.4008969,41.1349948 L37.504701,41.1349948 C38.3253247,41.1349948 38.9898557,40.4704639 38.9898557,39.6498402 L38.9944021,27.6754021 C38.9944021,27.2813814 38.8375515,26.9040309 38.5594639,26.6251856 C38.2813763,26.3463402 37.9025103,26.1894897 37.5084897,26.1894897 L26.4008969,26.1894897 L26.4008969,19.1835 C26.4008969,15.8161392 27.2033351,14.1066959 31.5898454,14.1066959 L37.9525206,14.1044227 C38.7723866,14.1044227 39.4369175,13.439134 39.4369175,12.619268 L39.4369175,1.50030928 C39.4369175,0.681201031 38.7731443,0.0166701031 37.9540361,0.0151546392 Z" id="Shape"></path>
                </g>
            </g>
        </g>
    </g>
</svg>