<?xml version="1.0" encoding="UTF-8"?>
<svg width="96px" height="96px" viewBox="0 0 96 96" version="1.1" xmlns="http://www.w3.org/2000/svg" xmlns:xlink="http://www.w3.org/1999/xlink">
    <!-- Generator: Sketch 41.2 (35397) - http://www.bohemiancoding.com/sketch -->
    <title>github</title>
    <desc>Created with Sketch.</desc>
    <defs></defs>
    <g id="Page-1" stroke="none" stroke-width="1" fill="none" fill-rule="evenodd">
        <g id="github" fill="#000000">
            <g id="github-logo" transform="translate(0.000000, 1.000000)">
                <g id="Capa_1">
                    <path d="M89.4685011,24.0090023 C85.1806469,16.647641 79.3644465,10.819641 72.018369,6.52368765 C64.6711982,2.22751515 56.6502779,0.07997669 47.9499226,0.07997669 C39.2506606,0.07997669 31.2271162,2.22817249 23.8814761,6.52368765 C16.5347426,10.8194219 10.7187608,16.647641 6.43090661,24.0090023 C2.14370843,31.3701445 0,39.4085688 0,48.1240559 C0,58.5933333 3.04838269,68.0075758 9.14667882,76.3691935 C15.2443189,84.7314685 23.1215672,90.5178368 32.7777677,93.7289557 C33.9017768,93.9379907 34.7338497,93.790965 35.274861,93.2916037 C35.8160911,92.7915851 36.0863781,92.1653566 36.0863781,91.4155478 C36.0863781,91.2904336 36.0756629,90.1648438 36.0548884,88.0374639 C36.0334579,85.9100839 36.0233986,84.0541865 36.0233986,82.470648 L34.5873349,82.7195618 C33.6717267,82.8876224 32.5166651,82.9588345 31.1221503,82.938676 C29.7282916,82.9191748 28.2812938,82.7728065 26.7831253,82.5006667 C25.2843007,82.2309371 23.8902232,81.605366 22.5997995,80.6252681 C21.3100319,79.6451702 20.3944237,78.3622564 19.8531936,76.7784988 L19.2288656,75.3389184 C18.8127198,74.3805128 18.1575581,73.3158368 17.2625057,72.1488345 C16.3674533,70.9807366 15.4623417,70.1888578 14.5467335,69.7718834 L14.1095945,69.458331 C13.8183144,69.2499534 13.5480273,68.9986294 13.2980774,68.7069883 C13.0483462,68.4153473 12.8613759,68.1234872 12.7365103,67.8311888 C12.611426,67.5386713 12.7150797,67.2987413 13.0485649,67.1105221 C13.3820501,66.922303 13.9847289,66.8309324 14.8592255,66.8309324 L16.1074442,67.0178368 C16.9399544,67.185021 17.969713,67.6843823 19.1980319,68.5189883 C20.4256948,69.3529371 21.4348975,70.4371142 22.2258588,71.7710816 C23.183672,73.4814872 24.3376401,74.7847786 25.6910433,75.6816131 C27.0433531,76.5784476 28.4068155,77.0260979 29.7801185,77.0260979 C31.1534214,77.0260979 32.3395353,76.9217995 33.3388975,76.7142984 C34.3371663,76.5057016 35.2737677,76.1921492 36.1482642,75.7753939 C36.522861,72.9799347 37.542779,70.8323963 39.2071435,69.3312448 C36.8349157,69.0814545 34.7021412,68.7052354 32.8077267,68.2049977 C30.9144055,67.7041026 28.9578861,66.8911888 26.9394806,65.7640653 C24.9199818,64.6384755 23.2446834,63.2407459 21.9131481,61.5732867 C20.5813941,59.904951 19.4884374,57.7146853 18.6358087,55.0044615 C17.7827426,52.2931422 17.3561002,49.1655058 17.3561002,45.620676 C17.3561002,40.57338 19.0005649,36.278303 22.2888383,32.733035 C20.7484647,28.9384149 20.8938861,24.6845315 22.7255399,19.9718228 C23.9326469,19.596042 25.7227517,19.878042 28.0949795,20.8160699 C30.4676446,21.7545361 32.2048292,22.5584662 33.3082825,23.2250117 C34.4117358,23.891338 35.2958542,24.4559953 35.9619499,24.9139441 C39.8336583,23.829986 43.829139,23.2878974 47.9494852,23.2878974 C52.0698314,23.2878974 56.0661868,23.829986 59.9381139,24.9139441 L62.3105604,23.4132308 C63.9329385,22.4118788 65.8487836,21.4942284 68.0535034,20.6600606 C70.2595353,19.826331 71.9464237,19.5966993 73.1124191,19.9724802 C74.9847472,24.6854079 75.1515991,28.9390723 73.6107882,32.7336923 C76.8988428,36.2789604 78.5439636,40.5751329 78.5439636,45.6213333 C78.5439636,49.1661632 78.1157904,52.3036597 77.2640364,55.0357949 C76.4111891,57.7683683 75.3088292,59.9564429 73.9565194,61.60462 C72.6026788,63.2525781 70.9166651,64.639352 68.8982597,65.7647226 C66.8794169,66.8909697 64.9222415,67.7038834 63.0289203,68.2047786 C61.1347244,68.7056737 59.0019499,69.0821119 56.6297221,69.3323403 C58.7933303,71.2083963 59.8753531,74.1697249 59.8753531,78.2150117 L59.8753531,91.4137949 C59.8753531,92.1636037 60.1355809,92.7896131 60.6564738,93.2898508 C61.1767107,93.7892121 61.998287,93.9362378 63.1222961,93.7269837 C72.7798087,90.516303 80.6570569,84.7297156 86.7544784,76.3674406 C92.8512437,68.0058228 95.9007198,58.5915804 95.9007198,48.122303 C95.898533,39.4079114 93.7537312,31.3701445 89.4685011,24.0090023 Z" id="Shape"></path>
                </g>
            </g>
        </g>
    </g>
</svg>