<?xml version="1.0" encoding="UTF-8"?>
<svg width="96px" height="96px" viewBox="0 0 96 96" version="1.1" xmlns="http://www.w3.org/2000/svg" xmlns:xlink="http://www.w3.org/1999/xlink">
    <!-- Generator: Sketch 41.2 (35397) - http://www.bohemiancoding.com/sketch -->
    <title>google</title>
    <desc>Created with Sketch.</desc>
    <defs></defs>
    <g id="Page-1" stroke="none" stroke-width="1" fill="none" fill-rule="evenodd">
        <g id="google" fill="#FFFFFF">
            <g id="google-glass-logo" transform="translate(7.000000, 7.000000)">
                <g id="Capa_1">
                    <g id="glass">
                        <path d="M45.684488,37.35 L45.684488,47.725 L70.1552711,47.725 C67.6667169,62.25 56.0534639,72.625 41.5368976,72.625 C24.5317771,72.625 10.4299699,58.515 10.4299699,41.5 C10.4299699,24.485 24.5317771,10.375 41.5368976,10.375 C50.2468373,10.375 57.7125,14.11 63.1043675,19.92 L70.5700301,12.45 C63.1043675,4.98 53.1501506,0 41.5368976,0 C18.7251506,0 0.0609939759,18.675 0.0609939759,41.5 C0.0609939759,64.325 18.7251506,83 41.5368976,83 C64.3486446,83 80.939006,64.325 80.939006,41.5 L80.939006,37.35 L45.684488,37.35 Z" id="Shape"></path>
                    </g>
                </g>
            </g>
        </g>
    </g>
</svg>