<?xml version="1.0" encoding="UTF-8"?>
<svg width="96px" height="96px" viewBox="0 0 96 96" version="1.1" xmlns="http://www.w3.org/2000/svg" xmlns:xlink="http://www.w3.org/1999/xlink">
    <!-- Generator: Sketch 41.2 (35397) - http://www.bohemiancoding.com/sketch -->
    <title>twitter</title>
    <desc>Created with Sketch.</desc>
    <defs></defs>
    <g id="Page-1" stroke="none" stroke-width="1" fill="none" fill-rule="evenodd">
        <g id="twitter" fill="#010002">
            <g id="twitter-logo-silhouette" transform="translate(11.000000, 18.000000)">
                <g id="Capa_1">
                    <path d="M74,7.13951807 C71.2763889,8.34204819 68.3539935,9.15759036 65.2834771,9.52168675 C68.418683,7.65096386 70.8186046,4.68373494 71.9560523,1.15891566 C69.0151569,2.8913253 65.768951,4.14927711 62.3100556,4.83120482 C59.5402549,1.88698795 55.6004804,0.0531325301 51.2306111,0.0531325301 C42.8470882,0.0531325301 36.0496078,6.82626506 36.0496078,15.1751807 C36.0496078,16.3592771 36.1837026,17.5157831 36.4427026,18.6216867 C23.8281209,17.9903614 12.6423922,11.9683133 5.15593791,2.81759036 C3.84727451,5.04771084 3.10280065,7.64626506 3.10280065,10.4201205 C3.10280065,15.6681928 5.78481699,20.2987952 9.8540915,23.0079518 C7.36626471,22.9250602 5.02643791,22.2431325 2.97801634,21.1096386 L2.97801634,21.2985542 C2.97801634,28.6245783 8.21254902,34.7387952 15.1533137,36.1303614 C13.8816503,36.4713253 12.5407026,36.660241 11.1534444,36.660241 C10.1731863,36.660241 9.22521242,36.563494 8.29573856,36.3791566 C10.2285654,42.3920482 15.833098,46.7645783 22.4733889,46.8844578 C17.280451,50.9391566 10.7326601,53.3489157 3.62080065,53.3489157 C2.39544771,53.3489157 1.18847386,53.2751807 0.000120915033,53.1415663 C6.71900654,57.4404819 14.6956503,59.946988 23.268768,59.946988 C51.1938529,59.946988 66.4581667,36.8998795 66.4581667,16.9122892 L66.4072614,14.9540964 C69.3897516,12.8344578 71.9699575,10.1713253 74,7.13951807 Z" id="Shape"></path>
                </g>
            </g>
        </g>
    </g>
</svg>