<?xml version="1.0" encoding="UTF-8"?>
<svg width="96px" height="43px" viewBox="0 0 96 43" version="1.1" xmlns="http://www.w3.org/2000/svg" xmlns:xlink="http://www.w3.org/1999/xlink">
    <!-- Generator: Sketch 41.2 (35397) - http://www.bohemiancoding.com/sketch -->
    <title>two-dots</title>
    <desc>Created with Sketch.</desc>
    <defs></defs>
    <g id="Page-1" stroke="none" stroke-width="1" fill="none" fill-rule="evenodd">
        <g id="two-dots" transform="translate(0.000000, -27.000000)">
            <g>
                <rect id="Rectangle" x="0" y="0" width="96" height="96"></rect>
                <g id="Page-1" transform="translate(0.000000, 27.000000)" fill="#000000">
                    <g id="two-dots">
                        <g id="Capa_1">
                            <path d="M96,21.3376 C96,33.1168 86.3712,42.6666667 74.4853333,42.6666667 C62.6037333,42.6666667 52.9717333,33.1168 52.9717333,21.3376 C52.9717333,9.552 62.6037333,0 74.4853333,0 C86.3712,0 96,9.552 96,21.3376 Z M21.5136,0 C9.632,0 0,9.552 0,21.3376 C0,33.1168 9.632,42.6666667 21.5136,42.6666667 C33.3952,42.6666667 43.0272,33.1168 43.0272,21.3376 C43.0272,9.552 33.3952,0 21.5136,0 Z" id="Flickr"></path>
                        </g>
                    </g>
                </g>
            </g>
        </g>
    </g>
</svg>